<?xml version="1.0" encoding="utf-8"?>
<!-- Generator: Adobe Illustrator 16.0.0, SVG Export Plug-In . SVG Version: 6.00 Build 0)  -->
<!DOCTYPE svg PUBLIC "-//W3C//DTD SVG 1.1//EN" "http://www.w3.org/Graphics/SVG/1.1/DTD/svg11.dtd">
<svg version="1.1" id="Layer_1" xmlns="http://www.w3.org/2000/svg" xmlns:xlink="http://www.w3.org/1999/xlink" x="0px" y="0px"
	 width="512px" height="512px" viewBox="0 0 512 512" enable-background="new 0 0 512 512" xml:space="preserve">
<g>
	<g>
		<circle fill="#F1F1F2" cx="256.631" cy="255.764" r="245.237"/>
	</g>
	<g>
		<path fill="#D0D2D3" d="M138.511,376.205l121.885,124.749c109.098-1.644,200.915-74.516,231.019-174.185L370.05,206.797
			L138.511,376.205z"/>
	</g>
	<g>
		<path fill="#A6A8AB" d="M383.071,320.405c0,18.866-17.914,34.159-40.013,34.159H170.203c-22.098,0-40.012-15.293-40.012-34.159
			v-88.626c0-18.865,17.914-34.159,40.012-34.159h172.855c22.099,0,40.013,15.294,40.013,34.159V320.405z"/>
	</g>
	<g>
		<path fill="#929497" d="M170.203,354.564c-22.098,0-40.012-15.293-40.012-34.159v-88.626c0-18.865,17.914-34.159,40.012-34.159
			V354.564z"/>
	</g>
	<g>
		<path fill="#FFFFFF" d="M129.191,265.67v88.626c0,18.865,17.914,34.159,40.012,34.159h172.855
			c22.099,0,41.013-15.025,41.013-33.891v-88.689c0-18.865-18.914-34.364-41.013-34.364H169.203c0,0-35.625,2.577-35.625-13.507
			c0,0-4.387,3.883-4.387,19.084S129.191,265.67,129.191,265.67z"/>
	</g>
	<g>
		<path fill="#BBBDBF" d="M383.071,337.176h-30.41c-18.121,0-32.81-12.541-32.81-28.012l0,0c0-15.469,14.688-28.01,32.81-28.01
			h30.41V337.176z"/>
	</g>
	<g>
		<circle fill="#FFFFFF" cx="347.096" cy="309.164" r="9.635"/>
	</g>
	<g>
		<path fill="#F1BD39" d="M262.749,322.487c0-2.496-0.813-4.565-2.438-6.21c-1.627-1.645-4.344-3.142-8.152-4.493
			c-6.182-2.109-10.818-4.65-13.908-7.624c-3.092-2.974-4.637-7.024-4.637-12.151c0-4.863,1.479-8.862,4.438-11.997
			s6.973-4.995,12.041-5.581v-9.58h7.031v9.668c5.01,0.762,8.928,2.908,11.755,6.438s4.241,8.21,4.241,14.04h-10.635
			c0-3.688-0.82-6.61-2.461-8.765c-1.641-2.155-3.896-3.232-6.768-3.232c-2.988,0-5.229,0.802-6.724,2.406
			c-1.494,1.604-2.241,3.759-2.241,6.467c0,2.531,0.783,4.592,2.351,6.181s4.388,3.104,8.46,4.546
			c6.182,2.227,10.781,4.805,13.799,7.734s4.526,6.943,4.526,12.041c0,5.068-1.538,9.111-4.614,12.129s-7.28,4.805-12.612,5.361
			v8.569h-6.987v-8.525c-5.244-0.557-9.558-2.453-12.942-5.69c-3.383-3.237-5.017-8.006-4.899-14.305l0.088-0.22h10.371
			c0,4.176,1.018,7.161,3.054,8.954c2.036,1.795,4.578,2.691,7.625,2.691c3.252,0,5.771-0.792,7.559-2.379
			C261.855,327.376,262.749,325.218,262.749,322.487z"/>
	</g>
	<g>
		<path fill="#26AAE1" d="M206.611,231.211c0-12.359-10.055-22.414-22.412-22.414c-12.359,0-22.414,10.055-22.414,22.414"/>
		<path fill="#26AAE1" d="M207.611,231.211h-2c0-11.808-9.605-21.414-21.412-21.414c-11.808,0-21.414,9.606-21.414,21.414h-2
			c0-12.911,10.503-23.414,23.414-23.414C197.109,207.797,207.611,218.3,207.611,231.211z"/>
	</g>
	<g>
		<path fill="#26AAE1" d="M253.516,166.206c-12.359,0-22.414,10.055-22.414,22.414s10.055,22.413,22.414,22.413
			c12.357,0,22.412-10.054,22.412-22.413S265.873,166.206,253.516,166.206z"/>
		<path fill="#26AAE1" d="M253.516,212.033c-12.911,0-23.414-10.503-23.414-23.413c0-12.911,10.503-23.414,23.414-23.414
			c12.909,0,23.412,10.503,23.412,23.414C276.928,201.53,266.425,212.033,253.516,212.033z M253.516,167.206
			c-11.808,0-21.414,9.606-21.414,21.414c0,11.807,9.606,21.413,21.414,21.413c11.807,0,21.412-9.606,21.412-21.413
			C274.928,176.812,265.322,167.206,253.516,167.206z"/>
	</g>
	<g>
		<path fill="#26AAE1" d="M324.719,181.383c-12.359,0-22.414,10.055-22.414,22.414s10.055,22.413,22.414,22.413
			c12.357,0,22.412-10.054,22.412-22.413S337.076,181.383,324.719,181.383z"/>
		<path fill="#26AAE1" d="M324.719,227.21c-12.91,0-23.414-10.503-23.414-23.413c0-12.911,10.504-23.414,23.414-23.414
			c12.909,0,23.412,10.503,23.412,23.414C348.131,216.707,337.628,227.21,324.719,227.21z M324.719,182.383
			c-11.808,0-21.414,9.606-21.414,21.414c0,11.807,9.606,21.413,21.414,21.413c11.807,0,21.412-9.606,21.412-21.413
			C346.131,191.989,336.525,182.383,324.719,182.383z"/>
	</g>
	<g>
		<path fill="#26AAE1" d="M300.306,112.11c-12.359,0-22.414,10.055-22.414,22.414s10.055,22.413,22.414,22.413
			c12.357,0,22.412-10.054,22.412-22.413S312.663,112.11,300.306,112.11z"/>
		<path fill="#26AAE1" d="M300.306,157.938c-12.91,0-23.414-10.503-23.414-23.413c0-12.911,10.504-23.414,23.414-23.414
			c12.909,0,23.412,10.503,23.412,23.414C323.718,147.435,313.215,157.938,300.306,157.938z M300.306,113.11
			c-11.808,0-21.414,9.606-21.414,21.414c0,11.807,9.606,21.413,21.414,21.413c11.807,0,21.412-9.606,21.412-21.413
			C321.718,122.717,312.112,113.11,300.306,113.11z"/>
	</g>
	<g>
		<path fill="#26AAE1" d="M192.617,132.556c-12.359,0-22.414,10.055-22.414,22.414s10.055,22.413,22.414,22.413
			c12.357,0,22.412-10.054,22.412-22.413S204.975,132.556,192.617,132.556z"/>
		<path fill="#26AAE1" d="M192.617,178.383c-12.911,0-23.414-10.503-23.414-23.413c0-12.911,10.503-23.414,23.414-23.414
			c12.91,0,23.412,10.503,23.412,23.414C216.029,167.88,205.527,178.383,192.617,178.383z M192.617,133.556
			c-11.808,0-21.414,9.606-21.414,21.414c0,11.807,9.606,21.413,21.414,21.413c11.807,0,21.412-9.606,21.412-21.413
			C214.029,143.162,204.424,133.556,192.617,133.556z"/>
	</g>
</g>
</svg>
