<?xml version="1.0" encoding="utf-8"?>
<!-- Generator: Adobe Illustrator 16.0.0, SVG Export Plug-In . SVG Version: 6.00 Build 0)  -->
<!DOCTYPE svg PUBLIC "-//W3C//DTD SVG 1.1//EN" "http://www.w3.org/Graphics/SVG/1.1/DTD/svg11.dtd">
<svg version="1.1" id="Layer_3" xmlns="http://www.w3.org/2000/svg" xmlns:xlink="http://www.w3.org/1999/xlink" x="0px" y="0px"
	 width="512px" height="512px" viewBox="0 0 512 512" enable-background="new 0 0 512 512" xml:space="preserve">
<g>
	<g>
		<circle fill="#F1F1F2" cx="256.309" cy="255.764" r="245.237"/>
	</g>
	<g>
		<path fill="#D0D2D3" d="M138.188,376.205l121.885,124.749c109.098-1.644,200.915-74.516,231.019-174.185L369.728,206.797
			L138.188,376.205z"/>
	</g>
	<g>
		<path fill="#A6A8AB" d="M395.045,284.43c0,29.934-22.386,54.199-50,54.199H167.572c-27.614,0-50-24.266-50-54.199v-73.712
			c0-29.935,22.386-54.2,50-54.2h177.473c27.614,0,50,24.266,50,54.2V284.43z"/>
	</g>
	<g>
		<rect x="148.385" y="187.518" fill="#F1BD39" width="215.334" height="91.518"/>
	</g>
	<g>
		<path fill="#FFFFFF" d="M395.045,326.43c0,29.934-22.386,54.199-50,54.199H167.572c-27.614,0-50-24.266-50-54.199v-73.712
			c0-29.935,22.386-54.2,50-54.2h177.473c27.614,0,50,24.266,50,54.2V326.43z"/>
	</g>
	<g>
		<g>
			<path fill="#D0D2D3" d="M333.138,231.266c0-2.174,0.7-3.995,2.101-5.464c1.401-1.469,3.316-2.204,5.745-2.204
				c2.445,0,4.368,0.73,5.769,2.191c1.401,1.46,2.103,3.285,2.103,5.477v1.961c0,2.174-0.701,3.986-2.103,5.438
				c-1.4,1.452-3.307,2.178-5.718,2.178c-2.445,0-4.373-0.726-5.782-2.178c-1.41-1.452-2.114-3.265-2.114-5.438V231.266z
				 M337.442,233.227c0,1.087,0.31,2.009,0.93,2.764c0.619,0.756,1.507,1.134,2.662,1.134c1.12,0,1.982-0.374,2.586-1.121
				c0.602-0.747,0.903-1.673,0.903-2.776v-1.961c0-1.104-0.31-2.038-0.93-2.803c-0.62-0.764-1.49-1.146-2.61-1.146
				c-1.139,0-2.013,0.382-2.624,1.146c-0.611,0.765-0.917,1.699-0.917,2.803V233.227z M342.308,258.444l-3.185-1.834l18.111-28.987
				l3.185,1.834L342.308,258.444z M350.968,252.127c0-2.156,0.705-3.969,2.114-5.438c1.41-1.469,3.32-2.204,5.731-2.204
				c2.445,0,4.369,0.73,5.77,2.19c1.401,1.461,2.102,3.277,2.102,5.451v1.987c0,2.19-0.7,4.012-2.102,5.464
				c-1.4,1.451-3.307,2.178-5.719,2.178c-2.445,0-4.372-0.73-5.782-2.19c-1.409-1.46-2.114-3.277-2.114-5.451V252.127z
				 M355.272,254.114c0,1.087,0.319,2.013,0.955,2.776c0.638,0.764,1.517,1.146,2.637,1.146c1.189,0,2.072-0.369,2.649-1.107
				c0.577-0.74,0.866-1.678,0.866-2.815v-1.987c0-1.086-0.311-2.012-0.93-2.776c-0.62-0.764-1.499-1.146-2.637-1.146
				s-2.012,0.382-2.623,1.146c-0.611,0.765-0.918,1.69-0.918,2.776V254.114z"/>
		</g>
	</g>
	<g>
		<path fill="#26AAE1" d="M265.427,306.955c0-2.496-0.813-4.565-2.438-6.21c-1.627-1.645-4.344-3.142-8.152-4.493
			c-6.182-2.109-10.818-4.65-13.908-7.624c-3.092-2.974-4.637-7.024-4.637-12.151c0-4.863,1.479-8.862,4.438-11.997
			s6.973-4.995,12.041-5.581v-9.58h7.031v9.668c5.01,0.762,8.928,2.908,11.755,6.438s4.241,8.21,4.241,14.04h-10.635
			c0-3.688-0.82-6.61-2.461-8.765c-1.641-2.155-3.896-3.232-6.768-3.232c-2.988,0-5.229,0.802-6.724,2.406
			c-1.494,1.604-2.241,3.759-2.241,6.467c0,2.531,0.783,4.592,2.351,6.181s4.388,3.104,8.46,4.546
			c6.182,2.227,10.781,4.805,13.799,7.734s4.526,6.943,4.526,12.041c0,5.068-1.538,9.111-4.614,12.129s-7.28,4.805-12.612,5.361
			v8.569h-6.987v-8.525c-5.244-0.557-9.558-2.453-12.942-5.69c-3.383-3.237-5.017-8.006-4.899-14.305l0.088-0.22h10.371
			c0,4.176,1.018,7.161,3.054,8.954c2.036,1.795,4.578,2.691,7.625,2.691c3.252,0,5.771-0.792,7.559-2.379
			C264.533,311.844,265.427,309.686,265.427,306.955z"/>
	</g>
</g>
</svg>
