<?xml version="1.0" encoding="utf-8"?>
<!-- Generator: Adobe Illustrator 16.0.0, SVG Export Plug-In . SVG Version: 6.00 Build 0)  -->
<!DOCTYPE svg PUBLIC "-//W3C//DTD SVG 1.1//EN" "http://www.w3.org/Graphics/SVG/1.1/DTD/svg11.dtd">
<svg version="1.1" id="Layer_2" xmlns="http://www.w3.org/2000/svg" xmlns:xlink="http://www.w3.org/1999/xlink" x="0px" y="0px"
	 width="512px" height="512px" viewBox="0 0 512 512" enable-background="new 0 0 512 512" xml:space="preserve">
<g>
	<g>
		<circle fill="#F1F1F2" cx="256.631" cy="255.764" r="245.237"/>
	</g>
	<g>
		<path fill="#D0D2D3" d="M502.005,255.769c0-2.152-0.029-4.299-0.084-6.438l-93.848-93.846l-15.186,48.5h-29.432l-15.188,38.755
			h-29.312h-30.373l-28.275,1.745v19.814h-29.352l-15.188,46.431h-28.312l-30.373,25.383h-14.289l-30.373,11.224l137.25,153.562
			c2.357,0.067,4.721,0.109,7.096,0.109C392.208,501.007,502.005,391.21,502.005,255.769z"/>
	</g>
	<g>
		<g>
			<rect x="112.421" y="336.112" fill="#FFFFFF" width="30.373" height="11.224"/>
		</g>
		<g>
			<rect x="157.083" y="310.729" fill="#FFFFFF" width="30.373" height="36.606"/>
		</g>
		<g>
			<rect x="200.583" y="264.299" fill="#FFFFFF" width="30.373" height="83.037"/>
		</g>
		<g>
			<rect x="245.122" y="231.984" fill="#FFFFFF" width="30.373" height="115.352"/>
		</g>
		<g>
			<rect x="288.583" y="242.739" fill="#FFFFFF" width="30.373" height="104.597"/>
		</g>
		<g>
			<rect x="333.083" y="203.984" fill="#FFFFFF" width="30.373" height="143.352"/>
		</g>
		<g>
			<rect x="377.702" y="155.484" fill="#FFFFFF" width="30.371" height="191.852"/>
		</g>
	</g>
	<g>
		<g>
			<polygon fill="#F1BD39" points="127.876,297.276 124.882,293.383 252.755,195.016 297.454,209.453 374.11,123.11 
				377.782,126.371 298.993,215.109 253.7,200.48 			"/>
			<polygon fill="#F1BD39" points="127.144,302.886 119.273,292.65 251.983,190.563 296.197,204.844 373.775,117.463 
				383.429,126.036 300.25,219.719 254.472,204.933 			"/>
		</g>
	</g>
	<g>
		<g>
			<polyline fill="#F1BD39" points="359.122,110.687 390.206,104.606 396.282,135.7 			"/>
		</g>
	</g>
	<g>
		<g>
			<circle fill="#26AAE1" cx="125.883" cy="295.038" r="19.062"/>
			<path fill="#26AAE1" d="M125.884,315.101c-11.062,0-20.062-9-20.062-20.062s9-20.062,20.062-20.062
				c11.062,0,20.061,9,20.061,20.062S136.945,315.101,125.884,315.101z M125.884,276.976c-9.959,0-18.062,8.103-18.062,18.062
				s8.103,18.062,18.062,18.062c9.958,0,18.061-8.103,18.061-18.062S135.842,276.976,125.884,276.976z"/>
		</g>
		<g>
			<path fill="#26AAE1" d="M125.884,317.451c-12.359,0-22.414-10.054-22.414-22.413s10.055-22.414,22.414-22.414
				c12.357,0,22.412,10.055,22.412,22.414S138.241,317.451,125.884,317.451z M125.884,279.326c-8.664,0-15.711,7.048-15.711,15.712
				c0,8.663,7.047,15.709,15.711,15.709c8.66,0,15.709-7.046,15.709-15.709C141.593,286.374,134.544,279.326,125.884,279.326z"/>
			<path fill="#26AAE1" d="M125.884,318.451c-12.911,0-23.414-10.503-23.414-23.413s10.503-23.414,23.414-23.414
				c12.91,0,23.412,10.504,23.412,23.414S138.793,318.451,125.884,318.451z M125.884,273.624c-11.808,0-21.414,9.606-21.414,21.414
				s9.606,21.413,21.414,21.413c11.807,0,21.412-9.605,21.412-21.413S137.69,273.624,125.884,273.624z M125.884,311.747
				c-9.214,0-16.711-7.496-16.711-16.709c0-9.215,7.497-16.712,16.711-16.712c9.213,0,16.709,7.497,16.709,16.712
				C142.593,304.251,135.097,311.747,125.884,311.747z M125.884,280.326c-8.112,0-14.711,6.6-14.711,14.712
				c0,8.11,6.599,14.709,14.711,14.709c8.11,0,14.709-6.599,14.709-14.709C140.593,286.926,133.994,280.326,125.884,280.326z"/>
		</g>
	</g>
	<g>
		<path fill="#D0D2D3" d="M136.301,223.074c0-2.496-0.813-4.565-2.438-6.21c-1.627-1.645-4.344-3.142-8.152-4.493
			c-6.182-2.109-10.818-4.65-13.908-7.624c-3.092-2.974-4.637-7.024-4.637-12.151c0-4.863,1.479-8.862,4.438-11.997
			s6.973-4.995,12.041-5.581v-9.58h7.031v9.668c5.01,0.762,8.928,2.908,11.755,6.438s4.241,8.21,4.241,14.04h-10.635
			c0-3.688-0.82-6.61-2.461-8.765c-1.641-2.155-3.896-3.232-6.768-3.232c-2.988,0-5.229,0.802-6.724,2.406
			c-1.494,1.604-2.241,3.759-2.241,6.467c0,2.531,0.783,4.592,2.351,6.181s4.388,3.104,8.46,4.546
			c6.182,2.227,10.781,4.805,13.799,7.734s4.526,6.943,4.526,12.041c0,5.068-1.538,9.111-4.614,12.129s-7.28,4.805-12.612,5.361
			v8.569h-6.987v-8.525c-5.244-0.557-9.558-2.453-12.942-5.69c-3.383-3.237-5.017-8.006-4.899-14.305l0.088-0.22h10.371
			c0,4.176,1.018,7.161,3.054,8.954c2.036,1.795,4.578,2.691,7.625,2.691c3.252,0,5.771-0.792,7.559-2.379
			C135.407,227.963,136.301,225.805,136.301,223.074z"/>
	</g>
</g>
</svg>
