<?xml version="1.0" encoding="utf-8"?>
<!-- Generator: Adobe Illustrator 16.0.0, SVG Export Plug-In . SVG Version: 6.00 Build 0)  -->
<!DOCTYPE svg PUBLIC "-//W3C//DTD SVG 1.1//EN" "http://www.w3.org/Graphics/SVG/1.1/DTD/svg11.dtd">
<svg version="1.1" xmlns="http://www.w3.org/2000/svg" xmlns:xlink="http://www.w3.org/1999/xlink" x="0px" y="0px" width="512px"
	 height="512px" viewBox="0 0 512 512" enable-background="new 0 0 512 512" xml:space="preserve">
<g id="Layer_2">
</g>
<g id="Layer_4">
</g>
<g id="Layer_5">
	<g>
		<g>
			<path fill="#CCCCCC" d="M21,254.5c0,108.033,73.373,198.914,173,225.568V28.932C94.373,55.586,21,146.467,21,254.5z"/>
		</g>
		<g>
			<path fill="#CCCCCC" d="M488,254.5c0-108.395-73.863-199.527-174-225.839v451.678C414.137,454.027,488,362.895,488,254.5z"/>
		</g>
		<g>
			<circle fill="#00AEEF" cx="255.5" cy="254.5" r="219.5"/>
		</g>
		<g>
			<path fill="#FFFFFF" d="M71.239,289.043v-78.025h34.595c6.954,0,12.241,0.701,15.86,2.103c3.619,1.402,6.511,3.876,8.675,7.424
				c2.164,3.548,3.247,7.469,3.247,11.762c0,5.535-1.792,10.201-5.375,13.998c-3.584,3.797-9.119,6.209-16.605,7.238
				c2.732,1.313,4.808,2.608,6.227,3.885c3.016,2.768,5.872,6.228,8.569,10.379l13.572,21.236h-12.986l-10.325-16.233
				c-3.016-4.684-5.5-8.267-7.451-10.751c-1.952-2.483-3.699-4.223-5.243-5.216c-1.543-0.993-3.113-1.685-4.71-2.076
				c-1.171-0.248-3.087-0.373-5.748-0.373H81.564v34.648H71.239z M81.564,245.453h22.194c4.719,0,8.409-0.487,11.07-1.463
				c2.661-0.976,4.684-2.537,6.067-4.684c1.384-2.146,2.076-4.479,2.076-6.999c0-3.69-1.34-6.724-4.018-9.101
				c-2.68-2.377-6.911-3.566-12.694-3.566H81.564V245.453z"/>
			<path fill="#FFFFFF" d="M187.264,270.84l9.899,1.225c-1.562,5.783-4.453,10.271-8.675,13.465
				c-4.223,3.193-9.616,4.791-16.18,4.791c-8.268,0-14.823-2.546-19.666-7.639c-4.844-5.09-7.265-12.231-7.265-21.422
				c0-9.508,2.448-16.889,7.345-22.14c4.896-5.251,11.248-7.877,19.054-7.877c7.558,0,13.731,2.573,18.521,7.717
				c4.79,5.145,7.185,12.383,7.185,21.715c0,0.567-0.018,1.419-0.053,2.555h-42.152c0.354,6.21,2.111,10.964,5.269,14.264
				c3.158,3.3,7.096,4.95,11.815,4.95c3.513,0,6.511-0.923,8.995-2.768C183.84,277.83,185.809,274.885,187.264,270.84z
				 M155.81,255.353h31.561c-0.426-4.754-1.632-8.32-3.619-10.698c-3.052-3.69-7.008-5.535-11.869-5.535
				c-4.4,0-8.099,1.473-11.097,4.417C157.787,246.482,156.129,250.421,155.81,255.353z"/>
			<path fill="#FFFFFF" d="M211.48,289.043v-49.072h-8.462v-7.451h8.462v-6.014c0-3.796,0.337-6.617,1.011-8.462
				c0.922-2.483,2.545-4.497,4.87-6.041c2.324-1.543,5.58-2.315,9.767-2.315c2.696,0,5.677,0.319,8.941,0.958l-1.437,8.356
				c-1.987-0.354-3.868-0.532-5.642-0.532c-2.91,0-4.968,0.621-6.174,1.863c-1.207,1.242-1.81,3.566-1.81,6.972v5.216h11.017v7.451
				h-11.017v49.072H211.48z"/>
			<path fill="#FFFFFF" d="M239.369,289.043V232.52h8.622v8.569c2.2-4.009,4.231-6.653,6.094-7.93
				c1.862-1.277,3.913-1.916,6.147-1.916c3.229,0,6.51,1.029,9.846,3.087l-3.299,8.888c-2.342-1.384-4.684-2.076-7.025-2.076
				c-2.094,0-3.975,0.63-5.642,1.89c-1.668,1.26-2.856,3.007-3.566,5.242c-1.064,3.406-1.597,7.132-1.597,11.177v29.592H239.369z"/>
			<path fill="#FFFFFF" d="M314.466,270.84l9.899,1.225c-1.562,5.783-4.453,10.271-8.676,13.465s-9.615,4.791-16.18,4.791
				c-8.268,0-14.822-2.546-19.665-7.639c-4.844-5.09-7.265-12.231-7.265-21.422c0-9.508,2.447-16.889,7.344-22.14
				c4.896-5.251,11.248-7.877,19.055-7.877c7.557,0,13.73,2.573,18.521,7.717c4.789,5.145,7.185,12.383,7.185,21.715
				c0,0.567-0.019,1.419-0.054,2.555h-42.152c0.354,6.21,2.111,10.964,5.27,14.264c3.157,3.3,7.096,4.95,11.815,4.95
				c3.513,0,6.511-0.923,8.995-2.768C311.041,277.83,313.011,274.885,314.466,270.84z M283.012,255.353h31.561
				c-0.426-4.754-1.633-8.32-3.619-10.698c-3.052-3.69-7.008-5.535-11.869-5.535c-4.399,0-8.099,1.473-11.097,4.417
				C284.989,246.482,283.33,250.421,283.012,255.353z"/>
			<path fill="#FFFFFF" d="M332.562,272.171l9.473-1.49c0.533,3.797,2.014,6.706,4.444,8.729s5.828,3.034,10.192,3.034
				c4.399,0,7.664-0.896,9.793-2.688c2.129-1.792,3.193-3.895,3.193-6.308c0-2.164-0.94-3.867-2.82-5.109
				c-1.313-0.852-4.578-1.934-9.793-3.247c-7.025-1.773-11.896-3.308-14.61-4.604c-2.714-1.295-4.772-3.086-6.174-5.375
				c-1.401-2.288-2.103-4.816-2.103-7.584c0-2.519,0.577-4.852,1.73-6.999c1.152-2.146,2.723-3.929,4.71-5.349
				c1.49-1.1,3.521-2.031,6.094-2.794c2.572-0.763,5.331-1.145,8.276-1.145c4.435,0,8.329,0.639,11.683,1.916
				c3.353,1.277,5.827,3.007,7.425,5.189c1.596,2.182,2.695,5.101,3.299,8.755l-9.367,1.277c-0.426-2.909-1.658-5.18-3.698-6.812
				c-2.041-1.632-4.923-2.448-8.649-2.448c-4.399,0-7.54,0.728-9.42,2.182c-1.881,1.455-2.82,3.158-2.82,5.109
				c0,1.242,0.39,2.36,1.17,3.353c0.78,1.029,2.005,1.881,3.673,2.555c0.958,0.355,3.778,1.171,8.462,2.448
				c6.777,1.81,11.505,3.292,14.185,4.444c2.679,1.154,4.78,2.83,6.307,5.029c1.525,2.201,2.288,4.933,2.288,8.197
				c0,3.193-0.931,6.199-2.794,9.021c-1.862,2.82-4.55,5.002-8.063,6.545c-3.512,1.545-7.486,2.316-11.922,2.316
				c-7.344,0-12.941-1.525-16.791-4.578C336.083,282.691,333.627,278.168,332.562,272.171z"/>
			<path fill="#FFFFFF" d="M390.895,289.043v-78.025h9.58v27.995c4.471-5.18,10.111-7.771,16.924-7.771
				c4.187,0,7.824,0.825,10.911,2.475c3.087,1.65,5.296,3.93,6.626,6.839c1.331,2.91,1.996,7.132,1.996,12.667v35.819h-9.58v-35.819
				c0-4.79-1.038-8.276-3.113-10.458c-2.076-2.182-5.013-3.273-8.809-3.273c-2.839,0-5.509,0.737-8.01,2.208
				c-2.502,1.473-4.285,3.469-5.35,5.988c-1.064,2.52-1.596,5.997-1.596,10.432v30.923H390.895z"/>
		</g>
	</g>
</g>
</svg>
